<?xml version="1.0" encoding="utf-8"?><svg xmlns="http://www.w3.org/2000/svg" xmlns:xlink="http://www.w3.org/1999/xlink"><symbol viewBox="0 0 24 24" id="check" xmlns="http://www.w3.org/2000/svg"><circle cx="12" cy="12" r="12"/><path d="M11.25 16.25L6 11.094h1.167l4.083 2.291L17.667 8h1.166l-7.583 8.25z"/></symbol><symbol viewBox="0 0 24 24" id="check-active" xmlns="http://www.w3.org/2000/svg"><circle cx="12" cy="12" r="12"/><path d="M11.25 16.25L6 11.094h1.167l4.083 2.291L17.667 8h1.166l-7.583 8.25z"/></symbol><symbol viewBox="0 0 300 47" id="logo" xmlns="http://www.w3.org/2000/svg"><path d="M203.595 13.833c-1.868-2.103-4.416-3.155-7.729-3.155-3.397 0-6.37 1.294-8.918 3.883V9.465l-10.278 6.229v23.864h10.278V21.922c1.274-1.698 2.888-2.507 4.926-2.507 1.274 0 2.293.404 3.058 1.132.764.728 1.189 1.942 1.189 3.479v15.45h10.277v-17.31c0-3.399-.934-6.23-2.803-8.333zm-72.791-.162c-1.953-1.941-4.502-2.912-7.644-2.912-1.954 0-3.822.404-5.521 1.294-1.784.89-3.143 2.023-4.077 3.317-.765-1.294-1.869-2.427-3.313-3.317a9.076 9.076 0 00-4.841-1.375c-3.907 0-6.965 1.375-9.088 4.045V9.465l-10.278 6.229v23.783H96.32V22.003c1.104-1.698 2.718-2.588 4.671-2.588 2.463 0 3.737 1.537 3.737 4.53v15.613h10.278V22.003c1.019-1.698 2.633-2.588 4.671-2.588 2.464 0 3.738 1.537 3.738 4.53v15.613h10.277V22.003c0-3.64-.934-6.39-2.888-8.332zm36.098 22.408c-3.142 2.831-7.049 4.207-11.891 4.207-4.841 0-8.833-1.376-11.891-4.207-3.143-2.831-4.672-6.31-4.672-10.597 0-4.207 1.529-7.685 4.672-10.517 3.142-2.83 7.135-4.287 11.891-4.287 4.757 0 8.749 1.456 11.891 4.287 3.143 2.832 4.672 6.31 4.672 10.517.085 4.287-1.529 7.766-4.672 10.597zm-5.351-10.597c0-1.78-.594-3.317-1.868-4.53-1.274-1.214-2.803-1.86-4.672-1.86-1.869 0-3.397.646-4.671 1.86-1.275 1.213-1.869 2.75-1.869 4.53 0 1.86.594 3.397 1.869 4.61 1.189 1.214 2.802 1.861 4.671 1.861 1.869 0 3.483-.647 4.672-1.86 1.189-1.214 1.868-2.75 1.868-4.611zm91.224 14.804c-4.587 0-8.494-1.294-11.722-3.964-3.143-2.67-4.756-6.31-4.756-10.759 0-4.206 1.444-7.685 4.331-10.516 2.888-2.832 6.626-4.288 11.297-4.288 4.247 0 7.645 1.375 10.193 4.126 2.633 2.67 3.992 6.229 3.992 10.597v2.427h-19.791c2.294 6.553 12.911 6.795 18.092 2.75v6.715c-2.718 1.941-6.625 2.912-11.636 2.912zm-6.456-17.635h9.768a4.782 4.782 0 00-1.359-3.398c-.934-.89-1.953-1.294-3.228-1.294-1.359 0-2.463.404-3.397 1.294-1.019.81-1.529 1.942-1.784 3.398zm31.258 16.907H266.45l10.617-14.48-9.853-13.59h11.212l4.841 6.956 4.842-6.957h11.127l-9.853 13.59L300 39.64h-11.297l-5.436-7.766-5.69 7.685zm-51.813-20.305v20.224h-10.277V19.253h-4.927v-7.847h4.927V9.95c0-2.993.934-5.42 2.803-7.2C220.158.97 222.791 0 226.274 0c3.058 0 5.776.404 8.069 1.213v6.715h-5.096c-2.379 0-3.568.97-3.568 2.993v.485h8.579v7.847h-8.494zM47.225 17.069L29.898 28.07l12.57-13.994L23.614 2.022 0 16.988V47l18.856-11.973-12.57-13.994 17.327 11.001L47.225 47l23.613-14.966V2.022L47.225 17.07z"/></symbol><symbol viewBox="0 0 220 35" id="logo2" xmlns="http://www.w3.org/2000/svg"><path d="M149.303 10.144c-1.37-1.542-3.239-2.313-5.668-2.313-2.492 0-4.672.949-6.541 2.847V6.941l-7.536 4.568v17.5h7.536V16.076c.935-1.245 2.118-1.839 3.613-1.839.934 0 1.682.297 2.242.831.561.534.873 1.424.873 2.55V28.95h7.536V16.254c0-2.491-.685-4.568-2.055-6.11zm-53.38-.119C94.49 8.602 92.62 7.89 90.317 7.89c-1.433 0-2.803.296-4.049.949-1.308.653-2.305 1.483-2.99 2.432-.56-.949-1.37-1.78-2.429-2.432a6.655 6.655 0 00-3.55-1.008c-2.866 0-5.108 1.008-6.665 2.966V6.94l-7.537 4.568v17.44h7.537V16.137c.81-1.246 1.993-1.899 3.426-1.899 1.806 0 2.74 1.128 2.74 3.322v11.45h7.537V16.136c.748-1.246 1.931-1.899 3.426-1.899 1.806 0 2.74 1.128 2.74 3.322v11.45h7.537V16.136c0-2.67-.685-4.687-2.117-6.11zm26.472 16.433c-2.305 2.076-5.17 3.085-8.721 3.085-3.55 0-6.478-1.009-8.72-3.085-2.305-2.076-3.426-4.627-3.426-7.771 0-3.085 1.121-5.636 3.426-7.712 2.305-2.077 5.232-3.144 8.72-3.144 3.488 0 6.416 1.067 8.721 3.144 2.304 2.076 3.425 4.627 3.425 7.712.063 3.144-1.121 5.695-3.425 7.771zm-3.924-7.771c0-1.305-.436-2.433-1.371-3.322-.934-.89-2.055-1.365-3.426-1.365-1.37 0-2.491.475-3.425 1.365-.935.89-1.371 2.017-1.371 3.322 0 1.364.436 2.491 1.371 3.381.872.89 2.055 1.364 3.425 1.364 1.371 0 2.554-.474 3.426-1.364.872-.89 1.371-2.017 1.371-3.381zm66.897 10.856c-3.364 0-6.229-.95-8.596-2.907-2.304-1.957-3.488-4.627-3.488-7.89 0-3.085 1.059-5.635 3.177-7.712 2.118-2.076 4.858-3.144 8.284-3.144 3.115 0 5.606 1.009 7.475 3.026 1.931 1.957 2.927 4.567 2.927 7.77v1.78h-14.513c1.682 4.806 9.468 4.984 13.267 2.017v4.924c-1.993 1.424-4.858 2.136-8.533 2.136zm-4.734-12.932h7.163c0-1.009-.374-1.84-.996-2.492-.686-.653-1.433-.95-2.367-.95-.997 0-1.807.297-2.492.95-.747.593-1.121 1.424-1.308 2.492zm22.922 12.398h-8.16l7.786-10.619-7.225-9.966h8.222l3.55 5.102 3.551-5.102h8.16l-7.226 9.966L220 29.068h-8.284l-3.987-5.695-4.173 5.636zm-37.996-14.89v14.83h-7.537V14.12h-3.612V8.365h3.612V7.297c0-2.195.685-3.975 2.056-5.28C161.449.712 163.38 0 165.934 0c2.242 0 4.235.297 5.917.89v4.924h-3.737c-1.744 0-2.616.712-2.616 2.195v.356h6.291v5.754h-6.229zM34.632 12.517l-12.707 8.068 9.219-10.263-13.828-8.84L0 12.459v22.009l13.828-8.78-9.219-10.263 12.707 8.068 17.316 10.975 17.316-10.975V1.482L34.632 12.518z"/></symbol></svg>