<svg width="220" height="35" fill="none" xmlns="http://www.w3.org/2000/svg"><path d="M149.303 10.144c-1.37-1.542-3.239-2.313-5.668-2.313-2.492 0-4.672.949-6.541 2.847V6.941l-7.536 4.568v17.5h7.536V16.076c.935-1.245 2.118-1.839 3.613-1.839.934 0 1.682.297 2.242.831.561.534.873 1.424.873 2.55V28.95h7.536V16.254c0-2.491-.685-4.568-2.055-6.11zm-53.38-.119C94.49 8.602 92.62 7.89 90.317 7.89c-1.433 0-2.803.296-4.049.949-1.308.653-2.305 1.483-2.99 2.432-.56-.949-1.37-1.78-2.429-2.432a6.655 6.655 0 00-3.55-1.008c-2.866 0-5.108 1.008-6.665 2.966V6.94l-7.537 4.568v17.44h7.537V16.137c.81-1.246 1.993-1.899 3.426-1.899 1.806 0 2.74 1.128 2.74 3.322v11.45h7.537V16.136c.748-1.246 1.931-1.899 3.426-1.899 1.806 0 2.74 1.128 2.74 3.322v11.45h7.537V16.136c0-2.67-.685-4.687-2.117-6.11zm26.472 16.433c-2.305 2.076-5.17 3.085-8.721 3.085-3.55 0-6.478-1.009-8.72-3.085-2.305-2.076-3.426-4.627-3.426-7.771 0-3.085 1.121-5.636 3.426-7.712 2.305-2.077 5.232-3.144 8.72-3.144 3.488 0 6.416 1.067 8.721 3.144 2.304 2.076 3.425 4.627 3.425 7.712.063 3.144-1.121 5.695-3.425 7.771zm-3.924-7.771c0-1.305-.436-2.433-1.371-3.322-.934-.89-2.055-1.365-3.426-1.365-1.37 0-2.491.475-3.425 1.365-.935.89-1.371 2.017-1.371 3.322 0 1.364.436 2.491 1.371 3.381.872.89 2.055 1.364 3.425 1.364 1.371 0 2.554-.474 3.426-1.364.872-.89 1.371-2.017 1.371-3.381zm66.897 10.856c-3.364 0-6.229-.95-8.596-2.907-2.304-1.957-3.488-4.627-3.488-7.89 0-3.085 1.059-5.635 3.177-7.712 2.118-2.076 4.858-3.144 8.284-3.144 3.115 0 5.606 1.009 7.475 3.026 1.931 1.957 2.927 4.567 2.927 7.77v1.78h-14.513c1.682 4.806 9.468 4.984 13.267 2.017v4.924c-1.993 1.424-4.858 2.136-8.533 2.136zm-4.734-12.932h7.163c0-1.009-.374-1.84-.996-2.492-.686-.653-1.433-.95-2.367-.95-.997 0-1.807.297-2.492.95-.747.593-1.121 1.424-1.308 2.492zm22.922 12.398h-8.16l7.786-10.619-7.225-9.966h8.222l3.55 5.102 3.551-5.102h8.16l-7.226 9.966L220 29.068h-8.284l-3.987-5.695-4.173 5.636zm-37.996-14.89v14.83h-7.537V14.12h-3.612V8.365h3.612V7.297c0-2.195.685-3.975 2.056-5.28C161.449.712 163.38 0 165.934 0c2.242 0 4.235.297 5.917.89v4.924h-3.737c-1.744 0-2.616.712-2.616 2.195v.356h6.291v5.754h-6.229z" fill="#fff"/><path d="M34.632 12.517l-12.707 8.068 9.219-10.263-13.828-8.84L0 12.459v22.009l13.828-8.78-9.219-10.263 12.707 8.068 17.316 10.975 17.316-10.975V1.482L34.632 12.518z" fill="#45BEAD"/></svg>