<svg width="300" height="47" fill="none" xmlns="http://www.w3.org/2000/svg"><path d="M203.595 13.833c-1.868-2.103-4.416-3.155-7.729-3.155-3.397 0-6.37 1.294-8.918 3.883V9.465l-10.278 6.229v23.864h10.278V21.922c1.274-1.698 2.888-2.507 4.926-2.507 1.274 0 2.293.404 3.058 1.132.764.728 1.189 1.942 1.189 3.479v15.45h10.277v-17.31c0-3.399-.934-6.23-2.803-8.333zm-72.791-.162c-1.953-1.941-4.502-2.912-7.644-2.912-1.954 0-3.822.404-5.521 1.294-1.784.89-3.143 2.023-4.077 3.317-.765-1.294-1.869-2.427-3.313-3.317a9.076 9.076 0 00-4.841-1.375c-3.907 0-6.965 1.375-9.088 4.045V9.465l-10.278 6.229v23.783H96.32V22.003c1.104-1.698 2.718-2.588 4.671-2.588 2.463 0 3.737 1.537 3.737 4.53v15.613h10.278V22.003c1.019-1.698 2.633-2.588 4.671-2.588 2.464 0 3.738 1.537 3.738 4.53v15.613h10.277V22.003c0-3.64-.934-6.39-2.888-8.332zm36.098 22.408c-3.142 2.831-7.049 4.207-11.891 4.207-4.841 0-8.833-1.376-11.891-4.207-3.143-2.831-4.672-6.31-4.672-10.597 0-4.207 1.529-7.685 4.672-10.517 3.142-2.83 7.135-4.287 11.891-4.287 4.757 0 8.749 1.456 11.891 4.287 3.143 2.832 4.672 6.31 4.672 10.517.085 4.287-1.529 7.766-4.672 10.597zm-5.351-10.597c0-1.78-.594-3.317-1.868-4.53-1.274-1.214-2.803-1.86-4.672-1.86-1.869 0-3.397.646-4.671 1.86-1.275 1.213-1.869 2.75-1.869 4.53 0 1.86.594 3.397 1.869 4.61 1.189 1.214 2.802 1.861 4.671 1.861 1.869 0 3.483-.647 4.672-1.86 1.189-1.214 1.868-2.75 1.868-4.611zm91.224 14.804c-4.587 0-8.494-1.294-11.722-3.964-3.143-2.67-4.756-6.31-4.756-10.759 0-4.206 1.444-7.685 4.331-10.516 2.888-2.832 6.626-4.288 11.297-4.288 4.247 0 7.645 1.375 10.193 4.126 2.633 2.67 3.992 6.229 3.992 10.597v2.427h-19.791c2.294 6.553 12.911 6.795 18.092 2.75v6.715c-2.718 1.941-6.625 2.912-11.636 2.912zm-6.456-17.635h9.768a4.782 4.782 0 00-1.359-3.398c-.934-.89-1.953-1.294-3.228-1.294-1.359 0-2.463.404-3.397 1.294-1.019.81-1.529 1.942-1.784 3.398zm31.258 16.907H266.45l10.617-14.48-9.853-13.59h11.212l4.841 6.956 4.842-6.957h11.127l-9.853 13.59L300 39.64h-11.297l-5.436-7.766-5.69 7.685zm-51.813-20.305v20.224h-10.277V19.253h-4.927v-7.847h4.927V9.95c0-2.993.934-5.42 2.803-7.2C220.158.97 222.791 0 226.274 0c3.058 0 5.776.404 8.069 1.213v6.715h-5.096c-2.379 0-3.568.97-3.568 2.993v.485h8.579v7.847h-8.494z" fill="#005F61"/><path d="M47.225 17.069L29.898 28.07l12.57-13.994L23.614 2.022 0 16.988V47l18.856-11.973-12.57-13.994 17.327 11.001L47.225 47l23.613-14.966V2.022L47.225 17.07z" fill="#45BEAD"/></svg>